<svg width="57" height="54" viewBox="0 0 57 54" fill="none" xmlns="http://www.w3.org/2000/svg" xmlns:xlink="http://www.w3.org/1999/xlink">
<path d="M32.2974 4.85445L29.6091 2.25289C28.4708 1.15133 26.6302 1.15133 25.504 2.25289L1.96339 25.0224C0.825104 26.124 0.825104 27.9052 1.96339 28.9951L25.504 51.7763C26.6423 52.8779 28.4829 52.8779 29.6091 51.7763L32.2974 49.1748C33.4478 48.0615 33.4235 46.2451 32.2489 45.1552L17.6571 31.7021H52.4595C54.07 31.7021 55.3657 30.4482 55.3657 28.8896V25.1396C55.3657 23.581 54.07 22.3271 52.4595 22.3271H17.6571L32.2489 8.87399C33.4356 7.78414 33.4599 5.96774 32.2974 4.85445Z" fill="#F5F5F5"/>
<use xlink:href="#stroke0_84_12" transform="matrix(-0.000783722 0.008611 0.008611 0.000783722 30.9839 3.31734)"/>
<use xlink:href="#stroke0_84_12" transform="matrix(-0.000728492 -0.00965125 -0.00965125 0.000728492 32.9706 5.21064)"/>
<use xlink:href="#stroke0_84_12" transform="matrix(-0.00369761 -0.00475002 -0.00475002 0.00369761 31.6059 3.09711)"/>
<use xlink:href="#stroke0_84_12" transform="matrix(-0.00107601 0.00463397 0.00463397 0.00107601 29.045 1.29422)"/>
<use xlink:href="#stroke0_84_12" transform="matrix(0.00311973 0.00309048 0.00309048 -0.00311973 28.0257 1.74419)"/>
<use xlink:href="#stroke0_84_12" transform="matrix(0.000180457 0.00398264 0.00398264 -0.000180457 27.6677 0.92376)"/>
<use xlink:href="#stroke0_84_12" transform="matrix(-0.00741892 0.00508732 0.00508732 0.00741892 27.6552 -0.6254)"/>
<use xlink:href="#stroke0_84_12" transform="matrix(-0.00400333 0.00120309 0.00120309 0.00400333 26.661 0.792212)"/>
<use xlink:href="#stroke0_84_12" transform="matrix(8.39731e-05 -0.00421922 -0.00421922 -8.39731e-05 26.3238 2.78058)"/>
<use xlink:href="#stroke0_84_12" transform="matrix(-0.0056793 0.000315744 0.000315744 0.0056793 26.0067 1.75062)"/>
<use xlink:href="#stroke0_84_12" transform="matrix(0.00796993 -0.00124686 -0.00124686 -0.00796993 23.0765 4.94203)"/>
<use xlink:href="#stroke0_84_12" transform="matrix(-0.00273198 -0.00980232 -0.00980232 0.00273198 25.2092 5.65021)"/>
<use xlink:href="#stroke0_84_12" transform="matrix(-0.0087843 -0.00301386 -0.00301386 0.0087843 23.8404 4.59784)"/>
<use xlink:href="#stroke0_84_12" transform="matrix(0.00138661 0.00870492 0.00870492 -0.00138661 19.2388 5.5425)"/>
<use xlink:href="#stroke0_84_12" transform="matrix(-0.010007 0.00235057 0.00235057 0.010007 20.9919 5.74924)"/>
<use xlink:href="#stroke0_84_12" transform="matrix(0.00129535 0.00424833 0.00424833 -0.00129535 17.9204 8.15513)"/>
<use xlink:href="#stroke0_84_12" transform="matrix(0.00204328 0.00917437 0.00917437 -0.00204328 16.0924 8.22257)"/>
<use xlink:href="#stroke0_84_12" transform="matrix(0.00727385 -0.00489635 -0.00489635 -0.00727385 16.6571 12.603)"/>
<use xlink:href="#stroke0_84_12" transform="matrix(-0.00419714 0.00208927 0.00208927 0.00419714 16.4056 10.1667)"/>
<use xlink:href="#stroke0_84_12" transform="matrix(-0.00798095 -0.000916921 -0.000916921 0.00798095 16.8455 10.8437)"/>
<use xlink:href="#stroke0_84_12" transform="matrix(0.00874312 -0.00227918 -0.00227918 -0.00874312 13.2754 14.8061)"/>
<use xlink:href="#stroke0_84_12" transform="matrix(-0.00579042 0.00626951 0.00626951 0.00579042 13.2878 12.1208)"/>
<use xlink:href="#stroke0_84_12" transform="matrix(-0.00315935 -0.00229332 -0.00229332 0.00315935 13.3889 14.5158)"/>
<use xlink:href="#stroke0_84_12" transform="matrix(0.00940914 0.00218177 0.00218177 -0.00940914 9.82051 16.7202)"/>
<use xlink:href="#stroke0_84_12" transform="matrix(-0.00182376 -0.00764075 -0.00764075 0.00182376 12.2688 17.4765)"/>
<use xlink:href="#stroke0_84_12" transform="matrix(0.00314482 0.00606918 0.00606918 -0.00314482 8.26918 16.9056)"/>
<use xlink:href="#stroke0_84_12" transform="matrix(-0.00794559 0.000925164 0.000925164 0.00794559 10.159 16.8573)"/>
<use xlink:href="#stroke0_84_12" transform="matrix(0.00285638 0.00835895 0.00835895 -0.00285638 6.06565 18.3457)"/>
<use xlink:href="#stroke0_84_12" transform="matrix(0.00292984 0.00244325 0.00244325 -0.00292984 6.28036 20.0493)"/>
<use xlink:href="#stroke0_84_12" transform="matrix(-0.00398666 -0.0017083 -0.0017083 0.00398666 7.71315 20.1411)"/>
<use xlink:href="#stroke0_84_12" transform="matrix(-0.00482513 0.00715364 0.00715364 0.00482513 5.46247 19.172)"/>
<use xlink:href="#stroke0_84_12" transform="matrix(-0.00642507 0.00449862 0.00449862 0.00642507 5.22402 20.3345)"/>
<use xlink:href="#stroke0_84_12" transform="matrix(-0.00425623 0.00015551 0.00015551 0.00425623 4.92121 22.1575)"/>
<use xlink:href="#stroke0_84_12" transform="matrix(0.000873388 -0.00387574 -0.00387574 -0.000873388 4.19692 24.0797)"/>
<use xlink:href="#stroke0_84_12" transform="matrix(0.00385822 -0.00249335 -0.00249335 -0.00385822 2.95969 24.8436)"/>
<use xlink:href="#stroke0_84_12" transform="matrix(0.0010356 -0.0053575 -0.0053575 -0.0010356 3.41403 25.5401)"/>
<use xlink:href="#stroke0_84_12" transform="matrix(-0.0063991 0.00350815 0.00350815 0.0063991 2.2257 23.4351)"/>
<use xlink:href="#stroke0_84_12" transform="matrix(0.00497812 -0.00100455 -0.00100455 -0.00497812 0.748226 27.0499)"/>
<use xlink:href="#stroke0_84_12" transform="matrix(-0.00546208 -0.00332365 -0.00332365 0.00546208 2.62858 26.5772)"/>
<use xlink:href="#stroke0_84_12" transform="matrix(-0.00368377 -0.00154664 -0.00154664 0.00368377 1.97447 27.4707)"/>
<use xlink:href="#stroke0_84_12" transform="matrix(0.000115663 0.00380709 0.00380709 -0.000115663 0.733299 27.8496)"/>
<use xlink:href="#stroke0_84_12" transform="matrix(-0.00393724 0.00315166 0.00315166 0.00393724 2.10207 27.7516)"/>
<use xlink:href="#stroke0_84_12" transform="matrix(-0.0020726 0.00985614 0.00985614 0.0020726 1.5316 27.8939)"/>
<use xlink:href="#stroke0_84_12" transform="matrix(-0.00487795 0.00153748 0.00153748 0.00487795 4.28625 29.6665)"/>
<use xlink:href="#stroke0_84_12" transform="matrix(0.00975094 0.000868494 0.000868494 -0.00975094 2.9248 33.0636)"/>
<use xlink:href="#stroke0_84_12" transform="matrix(-0.00847244 -0.00411904 -0.00411904 0.00847244 7.90236 31.9214)"/>
<use xlink:href="#stroke0_84_12" transform="matrix(0.00355583 -0.00132324 -0.00132324 -0.00355583 6.29003 34.2138)"/>
<use xlink:href="#stroke0_84_12" transform="matrix(0.00844909 0.00385644 0.00385644 -0.00844909 5.29315 35.0622)"/>
<use xlink:href="#stroke0_84_12" transform="matrix(0.00515548 0.00177662 0.00177662 -0.00515548 7.10287 35.6608)"/>
<use xlink:href="#stroke0_84_12" transform="matrix(-0.00990244 -0.00235077 -0.00235077 0.00990244 11.1186 34.7905)"/>
<use xlink:href="#stroke0_84_12" transform="matrix(-0.00499808 -0.00652665 -0.00652665 0.00499808 12.2156 37.2575)"/>
<use xlink:href="#stroke0_84_12" transform="matrix(0.00610153 -0.00583475 -0.00583475 -0.00610153 11.2603 39.9925)"/>
<use xlink:href="#stroke0_84_12" transform="matrix(0.00751853 -0.00492563 -0.00492563 -0.00751853 11.9182 41.0922)"/>
<use xlink:href="#stroke0_84_12" transform="matrix(-0.00805638 0.000752834 0.000752834 0.00805638 14.4907 38.5903)"/>
<use xlink:href="#stroke0_84_12" transform="matrix(0.00971213 -0.00143791 -0.00143791 -0.00971213 13.0446 42.9422)"/>
<use xlink:href="#stroke0_84_12" transform="matrix(-0.00173191 0.00433204 0.00433204 0.00173191 14.8315 40.905)"/>
<use xlink:href="#stroke0_84_12" transform="matrix(0.00493828 0.00850327 0.00850327 -0.00493828 13.9218 42.1696)"/>
<use xlink:href="#stroke0_84_12" transform="matrix(-0.000204891 -0.004121 -0.004121 0.000204891 17.6805 44.2088)"/>
<use xlink:href="#stroke0_84_12" transform="matrix(0.0032587 -0.00204492 -0.00204492 -0.0032587 17.2166 44.9401)"/>
<use xlink:href="#stroke0_84_12" transform="matrix(-0.00769378 0.00505315 0.00505315 0.00769378 18.6034 42.6977)"/>
<use xlink:href="#stroke0_84_12" transform="matrix(0.00900546 -0.00308049 -0.00308049 -0.00900546 18.3745 47.8889)"/>
<use xlink:href="#stroke0_84_12" transform="matrix(0.0037525 0.00585113 0.00585113 -0.0037525 18.8207 46.4034)"/>
<use xlink:href="#stroke0_84_12" transform="matrix(-0.00550734 8.45063e-05 8.45063e-05 0.00550734 22.0227 46.5377)"/>
<use xlink:href="#stroke0_84_12" transform="matrix(-0.00625379 -0.00118463 -0.00118463 0.00625379 22.9795 47.3984)"/>
<use xlink:href="#stroke0_84_12" transform="matrix(-0.008222 -0.00430559 -0.00430559 0.008222 24.758 48.486)"/>
<use xlink:href="#stroke0_84_12" transform="matrix(-0.00689644 -0.00269811 -0.00269811 0.00689644 25.3314 49.3493)"/>
<use xlink:href="#stroke0_84_12" transform="matrix(-0.00406097 -0.0047889 -0.0047889 0.00406097 26.0631 50.931)"/>
<use xlink:href="#stroke0_84_12" transform="matrix(0.00673738 0.00181786 0.00181786 -0.00673738 24.002 52.4125)"/>
<use xlink:href="#stroke0_84_12" transform="matrix(0.00313741 0.00319335 0.00319335 -0.00313741 25.1019 52.1435)"/>
<use xlink:href="#stroke0_84_12" transform="matrix(0.00799901 0.00197223 0.00197223 -0.00799901 25.4695 53.5319)"/>
<use xlink:href="#stroke0_84_12" transform="matrix(-0.000371304 0.00825403 0.00825403 0.000371304 27.1142 50.9905)"/>
<use xlink:href="#stroke0_84_12" transform="matrix(-0.00835187 -0.00584492 -0.00584492 0.00835187 31.9966 51.1193)"/>
<use xlink:href="#stroke0_84_12" transform="matrix(0.00325915 0.0026323 0.0026323 -0.00325915 29.6426 50.9495)"/>
<use xlink:href="#stroke0_84_12" transform="matrix(0.00482921 -0.000719011 -0.000719011 -0.00482921 30.5406 51.2864)"/>
<use xlink:href="#stroke0_84_12" transform="matrix(0.00136743 -0.00355795 -0.00355795 -0.00136743 32.0624 50.6268)"/>
<use xlink:href="#stroke0_84_12" transform="matrix(0.00409849 0.00047432 0.00047432 -0.00409849 31.4068 49.9559)"/>
<use xlink:href="#stroke0_84_12" transform="matrix(-0.00628879 0.00402389 0.00402389 0.00628879 33.149 46.9071)"/>
<use xlink:href="#stroke0_84_12" transform="matrix(-6.36317e-05 -0.00385373 -0.00385373 6.36317e-05 33.7975 48.3464)"/>
<use xlink:href="#stroke0_84_12" transform="matrix(-0.00363312 -0.00158971 -0.00158971 0.00363312 33.9241 46.7254)"/>
<use xlink:href="#stroke0_84_12" transform="matrix(-0.00493172 0.00629226 0.00629226 0.00493172 32.7016 44.2401)"/>
<use xlink:href="#stroke0_84_12" transform="matrix(-0.00578177 -0.00103049 -0.00103049 0.00578177 33.3824 44.3634)"/>
<use xlink:href="#stroke0_84_12" transform="matrix(-0.00393669 -0.00263754 -0.00263754 0.00393669 32.7063 44.3292)"/>
<use xlink:href="#stroke0_84_12" transform="matrix(-0.00103948 0.00387896 0.00387896 0.00103948 30.5951 43.2685)"/>
<use xlink:href="#stroke0_84_12" transform="matrix(0.0056085 -0.00346375 -0.00346375 -0.0056085 30.032 45.0437)"/>
<use xlink:href="#stroke0_84_12" transform="matrix(0.00412489 0.00130261 0.00130261 -0.00412489 28.9503 43.2466)"/>
<use xlink:href="#stroke0_84_12" transform="matrix(-0.00210324 0.00334431 0.00334431 0.00210324 28.9632 41.5723)"/>
<use xlink:href="#stroke0_84_12" transform="matrix(-0.00252509 -0.00343191 -0.00343191 0.00252509 29.6708 42.1368)"/>
<use xlink:href="#stroke0_84_12" transform="matrix(0.00445161 -0.00162072 -0.00162072 -0.00445161 27.747 42.4259)"/>
<use xlink:href="#stroke0_84_12" transform="matrix(0.00910487 -0.00241873 -0.00241873 -0.00910487 26.3104 42.4749)"/>
<use xlink:href="#stroke0_84_12" transform="matrix(0.0023614 -0.00855641 -0.00855641 -0.0023614 27.3181 41.3161)"/>
<use xlink:href="#stroke0_84_12" transform="matrix(-0.00547964 -0.00139297 -0.00139297 0.00547964 26.519 38.0037)"/>
<use xlink:href="#stroke0_84_12" transform="matrix(-0.00162837 0.00356674 0.00356674 0.00162837 24.3404 37.4429)"/>
<use xlink:href="#stroke0_84_12" transform="matrix(-0.00359697 -0.00465654 -0.00465654 0.00359697 25.4886 37.8478)"/>
<use xlink:href="#stroke0_84_12" transform="matrix(-0.00323219 0.00277307 0.00277307 0.00323219 23.5327 36.1578)"/>
<use xlink:href="#stroke0_84_12" transform="matrix(0.00466963 -0.00408171 -0.00408171 -0.00466963 22.7944 37.9607)"/>
<use xlink:href="#stroke0_84_12" transform="matrix(0.0100221 0.00133479 0.00133479 -0.0100221 19.995 37.0734)"/>
<use xlink:href="#stroke0_84_12" transform="matrix(0.00280751 0.00284702 0.00284702 -0.00280751 20.1473 34.7235)"/>
<use xlink:href="#stroke0_84_12" transform="matrix(0.00321899 0.00579001 0.00579001 -0.00321899 18.7923 33.8693)"/>
<use xlink:href="#stroke0_84_12" transform="matrix(-0.00574323 0.00564991 0.00564991 0.00574323 19.4873 31.4472)"/>
<use xlink:href="#stroke0_84_12" transform="matrix(-0.000842293 -0.00572905 -0.00572905 0.000842293 19.706 33.3854)"/>
<use xlink:href="#stroke0_84_12" transform="matrix(-0.00895269 0.00365759 0.00365759 0.00895269 18.4992 29.6368)"/>
<use xlink:href="#stroke0_84_12" transform="matrix(-0.00550701 0.00202048 0.00202048 0.00550701 19.4966 30.5541)"/>
<use xlink:href="#stroke0_84_12" transform="matrix(0.00713261 -0.0010092 -0.0010092 -0.00713261 19.0283 33.0576)"/>
<use xlink:href="#stroke0_84_12" transform="matrix(-0.00869372 0.00179841 0.00179841 0.00869372 22.4814 29.9331)"/>
<use xlink:href="#stroke0_84_12" transform="matrix(0.00415101 0.000234337 0.000234337 -0.00415101 21.7315 32.2379)"/>
<use xlink:href="#stroke0_84_12" transform="matrix(-0.005165 0.00152381 0.00152381 0.005165 23.8313 30.6364)"/>
<use xlink:href="#stroke0_84_12" transform="matrix(0.00612763 -0.00740932 -0.00740932 -0.00612763 24.7319 33.9706)"/>
<use xlink:href="#stroke0_84_12" transform="matrix(-0.00678649 0.0032168 0.0032168 0.00678649 26.4876 29.9949)"/>
<use xlink:href="#stroke0_84_12" transform="matrix(-0.00697867 -0.00345264 -0.00345264 0.00697867 28.9091 31.0089)"/>
<use xlink:href="#stroke0_84_12" transform="matrix(-0.00207629 -0.00423423 -0.00423423 0.00207629 29.2805 31.9861)"/>
<use xlink:href="#stroke0_84_12" transform="matrix(0.00525703 0.00610365 0.00610365 -0.00525703 27.4162 31.6112)"/>
<use xlink:href="#stroke0_84_12" transform="matrix(-0.00389361 -0.00161897 -0.00161897 0.00389361 31.2248 31.3756)"/>
<use xlink:href="#stroke0_84_12" transform="matrix(-0.00621707 -0.00469422 -0.00469422 0.00621707 33.1187 31.5229)"/>
<use xlink:href="#stroke0_84_12" transform="matrix(0.00538278 0.000355319 0.000355319 -0.00538278 31.4774 32.447)"/>
<use xlink:href="#stroke0_84_12" transform="matrix(-0.0043856 -0.00252981 -0.00252981 0.0043856 34.426 31.4779)"/>
<use xlink:href="#stroke0_84_12" transform="matrix(0.00311465 0.00314436 0.00314436 -0.00311465 33.0418 31.7541)"/>
<use xlink:href="#stroke0_84_12" transform="matrix(0.00899789 -0.000222435 -0.000222435 -0.00899789 33.7628 33.2957)"/>
<use xlink:href="#stroke0_84_12" transform="matrix(0.000288654 -0.00395009 -0.00395009 -0.000288654 36.888 32.3815)"/>
<use xlink:href="#stroke0_84_12" transform="matrix(0.0070053 -0.000869008 -0.000869008 -0.0070053 36.1932 33.0546)"/>
<use xlink:href="#stroke0_84_12" transform="matrix(-0.00415288 0.00452679 0.00452679 0.00415288 38.2111 30.2157)"/>
<use xlink:href="#stroke0_84_12" transform="matrix(0.00429663 -0.00804232 -0.00804232 -0.00429663 40.2063 33.7476)"/>
<use xlink:href="#stroke0_84_12" transform="matrix(-0.00347599 0.00252652 0.00252652 0.00347599 40.8232 30.5923)"/>
<use xlink:href="#stroke0_84_12" transform="matrix(-0.00591177 -0.00076294 -0.00076294 0.00591177 42.6257 30.9252)"/>
<use xlink:href="#stroke0_84_12" transform="matrix(0.00468351 -0.00257143 -0.00257143 -0.00468351 42.1398 32.7866)"/>
<use xlink:href="#stroke0_84_12" transform="matrix(-0.00725492 0.00117232 0.00117232 0.00725492 44.5191 30.199)"/>
<use xlink:href="#stroke0_84_12" transform="matrix(-0.00337426 -0.00262199 -0.00262199 0.00337426 45.4884 31.6841)"/>
<use xlink:href="#stroke0_84_12" transform="matrix(-0.00434272 -0.000910119 -0.000910119 0.00434272 46.0853 31.2069)"/>
<use xlink:href="#stroke0_84_12" transform="matrix(-0.00302018 -0.00252312 -0.00252312 0.00302018 46.8365 31.6054)"/>
<use xlink:href="#stroke0_84_12" transform="matrix(0.0046026 -0.000880659 -0.000880659 -0.0046026 46.0349 32.5048)"/>
<use xlink:href="#stroke0_84_12" transform="matrix(0.00633371 -0.00756158 -0.00756158 -0.00633371 48.0821 33.9848)"/>
<use xlink:href="#stroke0_84_12" transform="matrix(-0.00328367 -0.00416246 -0.00416246 0.00328367 50.3462 31.7982)"/>
<use xlink:href="#stroke0_84_12" transform="matrix(-0.00516207 0.000801887 0.000801887 0.00516207 50.6983 30.6925)"/>
<use xlink:href="#stroke0_84_12" transform="matrix(-0.00438657 0.00633641 0.00633641 0.00438657 50.722 29.952)"/>
<use xlink:href="#stroke0_84_12" transform="matrix(-0.00385296 -0.00076353 -0.00076353 0.00385296 52.7921 31.134)"/>
<use xlink:href="#stroke0_84_12" transform="matrix(0.00545851 -0.00213887 -0.00213887 -0.00545851 52.3093 32.8844)"/>
<use xlink:href="#stroke0_84_12" transform="matrix(0.00492722 -0.00073777 -0.00073777 -0.00492722 52.9837 32.267)"/>
<use xlink:href="#stroke0_84_12" transform="matrix(-0.00314947 -0.00909429 -0.00909429 0.00314947 56.7293 31.6741)"/>
<use xlink:href="#stroke0_84_12" transform="matrix(0.000244139 0.00901753 0.00901753 -0.000244139 53.6791 27.8717)"/>
<use xlink:href="#stroke0_84_12" transform="matrix(0.00565799 -0.00626557 -0.00626557 -0.00565799 55.4139 29.8371)"/>
<use xlink:href="#stroke0_84_12" transform="matrix(-0.00197374 -0.00786794 -0.00786794 0.00197374 56.9079 27.4428)"/>
<use xlink:href="#stroke0_84_12" transform="matrix(0.00224344 -0.0032756 -0.0032756 -0.00224344 55.5366 26.3929)"/>
<use xlink:href="#stroke0_84_12" transform="matrix(-0.00170505 -0.00410515 -0.00410515 0.00170505 56.4026 25.1552)"/>
<use xlink:href="#stroke0_84_12" transform="matrix(0.00267403 0.0034018 0.0034018 -0.00267403 54.2366 23.9344)"/>
<use xlink:href="#stroke0_84_12" transform="matrix(0.00454476 -0.00366372 -0.00366372 -0.00454476 54.573 24.7292)"/>
<use xlink:href="#stroke0_84_12" transform="matrix(-0.00972301 0.0019594 0.0019594 0.00972301 54.9582 20.5735)"/>
<use xlink:href="#stroke0_84_12" transform="matrix(-0.00226529 -0.00392379 -0.00392379 0.00226529 53.5305 22.6204)"/>
<use xlink:href="#stroke0_84_12" transform="matrix(0.00556812 0.00532895 0.00532895 -0.00556812 49.6839 22.3726)"/>
<use xlink:href="#stroke0_84_12" transform="matrix(0.0018719 -0.00427862 -0.00427862 -0.0018719 50.865 23.3227)"/>
<use xlink:href="#stroke0_84_12" transform="matrix(-0.00692931 0.00100869 0.00100869 0.00692931 50.4449 20.9575)"/>
<use xlink:href="#stroke0_84_12" transform="matrix(-0.00370526 0.00503824 0.00503824 0.00370526 48.1402 20.7602)"/>
<use xlink:href="#stroke0_84_12" transform="matrix(-0.00272532 -0.00980591 -0.00980591 0.00272532 49.0968 23.3968)"/>
<use xlink:href="#stroke0_84_12" transform="matrix(-0.0031982 -0.00222625 -0.00222625 0.0031982 46.7333 22.1886)"/>
<use xlink:href="#stroke0_84_12" transform="matrix(0.0035577 0.00172302 0.00172302 -0.0035577 44.3155 22.6644)"/>
<use xlink:href="#stroke0_84_12" transform="matrix(-0.00487945 -0.00633102 -0.00633102 0.00487945 46.0465 22.5834)"/>
<use xlink:href="#stroke0_84_12" transform="matrix(-0.00728013 -0.00509835 -0.00509835 0.00728013 44.8265 21.8249)"/>
<use xlink:href="#stroke0_84_12" transform="matrix(0.00351728 0.0014534 0.0014534 -0.00351728 40.9099 22.7217)"/>
<use xlink:href="#stroke0_84_12" transform="matrix(0.00705693 0.00195761 0.00195761 -0.00705693 39.3209 23.0919)"/>
<use xlink:href="#stroke0_84_12" transform="matrix(0.000508039 0.00527868 0.00527868 -0.000508039 38.7828 21.4304)"/>
<use xlink:href="#stroke0_84_12" transform="matrix(0.00395094 0.00415038 0.00415038 -0.00395094 37.4908 22.2304)"/>
<use xlink:href="#stroke0_84_12" transform="matrix(-0.0042164 0.00243684 0.00243684 0.0042164 38.2285 21.3329)"/>
<use xlink:href="#stroke0_84_12" transform="matrix(-0.00318667 0.00220129 0.00220129 0.00318667 37.3718 21.5325)"/>
<use xlink:href="#stroke0_84_12" transform="matrix(0.000389462 0.00412162 0.00412162 -0.000389462 35.7992 21.6414)"/>
<use xlink:href="#stroke0_84_12" transform="matrix(0.00332341 -0.00211593 -0.00211593 -0.00332341 35.6915 23.2588)"/>
<use xlink:href="#stroke0_84_12" transform="matrix(0.00497643 0.000472516 0.000472516 -0.00497643 34.2441 23.1824)"/>
<use xlink:href="#stroke0_84_12" transform="matrix(-0.00526347 -0.000673202 -0.000673202 0.00526347 35.2496 21.5581)"/>
<use xlink:href="#stroke0_84_12" transform="matrix(0.00371381 -0.000944856 -0.000944856 -0.00371381 33.0684 23.099)"/>
<use xlink:href="#stroke0_84_12" transform="matrix(0.00448375 -0.00173853 -0.00173853 -0.00448375 32.3561 23.2672)"/>
<use xlink:href="#stroke0_84_12" transform="matrix(-0.00294635 -0.00271853 -0.00271853 0.00294635 32.999 22.1579)"/>
<use xlink:href="#stroke0_84_12" transform="matrix(-0.00547606 0.00550076 0.00550076 0.00547606 31.056 20.6162)"/>
<use xlink:href="#stroke0_84_12" transform="matrix(-0.00175588 -0.00397375 -0.00397375 0.00175588 31.0265 22.7656)"/>
<use xlink:href="#stroke0_84_12" transform="matrix(-0.000932382 0.00404303 0.00404303 0.000932382 28.8429 21.5264)"/>
<use xlink:href="#stroke0_84_12" transform="matrix(0.00676202 -0.00401242 -0.00401242 -0.00676202 27.9348 24.1557)"/>
<use xlink:href="#stroke0_84_12" transform="matrix(-0.0026318 0.00579177 0.00579177 0.0026318 26.643 21.0391)"/>
<use xlink:href="#stroke0_84_12" transform="matrix(0.00603325 0.00161766 0.00161766 -0.00603325 24.8771 23.1472)"/>
<use xlink:href="#stroke0_84_12" transform="matrix(0.00219824 0.00309295 0.00309295 -0.00219824 24.4202 22.258)"/>
<use xlink:href="#stroke0_84_12" transform="matrix(-0.00323278 -0.00857548 -0.00857548 0.00323278 26.1811 23.1954)"/>
<use xlink:href="#stroke0_84_12" transform="matrix(0.0052313 -0.000826694 -0.000826694 -0.0052313 22.2979 23.2486)"/>
<use xlink:href="#stroke0_84_12" transform="matrix(-0.00319201 -0.00342106 -0.00342106 0.00319201 23.2768 22.2398)"/>
<use xlink:href="#stroke0_84_12" transform="matrix(0.007939 0.00597818 0.00597818 -0.007939 18.669 22.6379)"/>
<use xlink:href="#stroke0_84_12" transform="matrix(-0.00136103 -0.00404204 -0.00404204 0.00136103 20.682 22.6515)"/>
<use xlink:href="#stroke0_84_12" transform="matrix(0.00261442 -0.00414228 -0.00414228 -0.00261442 19.2867 23.4035)"/>
<use xlink:href="#stroke0_84_12" transform="matrix(-0.0032812 0.00576041 0.00576041 0.0032812 17.6318 20.7603)"/>
<use xlink:href="#stroke0_84_12" transform="matrix(0.00889572 -0.00449324 -0.00449324 -0.00889572 17.6522 23.8602)"/>
<use xlink:href="#stroke0_84_12" transform="matrix(2.03268e-05 0.00727199 0.00727199 -2.03268e-05 18.2623 19.5621)"/>
<use xlink:href="#stroke0_84_12" transform="matrix(-0.00459757 -0.000865204 -0.000865204 0.00459757 21.0768 19.4072)"/>
<use xlink:href="#stroke0_84_12" transform="matrix(-0.00476566 -0.00537977 -0.00537977 0.00476566 22.5501 19.4071)"/>
<use xlink:href="#stroke0_84_12" transform="matrix(-0.00153351 -0.0042676 -0.0042676 0.00153351 22.4913 19.0371)"/>
<use xlink:href="#stroke0_84_12" transform="matrix(-0.00393567 -0.00212409 -0.00212409 0.00393567 23.0999 17.8026)"/>
<use xlink:href="#stroke0_84_12" transform="matrix(-0.00462257 0.00166944 0.00166944 0.00462257 23.1712 16.5594)"/>
<use xlink:href="#stroke0_84_12" transform="matrix(-0.00142892 0.00594135 0.00594135 0.00142892 22.566 15.727)"/>
<use xlink:href="#stroke0_84_12" transform="matrix(0.00852621 0.000913967 0.000913967 -0.00852621 22.7341 17.4426)"/>
<use xlink:href="#stroke0_84_12" transform="matrix(-0.00850271 0.00100061 0.00100061 0.00850271 26.5938 13.6593)"/>
<use xlink:href="#stroke0_84_12" transform="matrix(-0.00131354 -0.00372028 -0.00372028 0.00131354 27.0053 14.9595)"/>
<use xlink:href="#stroke0_84_12" transform="matrix(-0.00557828 -0.00631723 -0.00631723 0.00557828 28.8105 13.8809)"/>
<use xlink:href="#stroke0_84_12" transform="matrix(0.00213288 0.00424466 0.00424466 -0.00213288 26.6218 12.7377)"/>
<use xlink:href="#stroke0_84_12" transform="matrix(0.00701046 0.0038905 0.0038905 -0.00701046 26.744 12.9755)"/>
<use xlink:href="#stroke0_84_12" transform="matrix(-0.00745651 -0.00537243 -0.00537243 0.00745651 31.6815 11.064)"/>
<use xlink:href="#stroke0_84_12" transform="matrix(-0.00609491 -0.00014201 -0.00014201 0.00609491 31.4881 9.54099)"/>
<use xlink:href="#stroke0_84_12" transform="matrix(-0.00572098 -0.00468414 -0.00468414 0.00572098 32.9828 9.55075)"/>
<use xlink:href="#stroke0_84_12" transform="matrix(-0.00164523 -0.00603197 -0.00603197 0.00164523 33.4441 9.75409)"/>
<use xlink:href="#stroke0_84_12" transform="matrix(-0.00510989 0.00340893 0.00340893 0.00510989 33.0057 6.77441)"/>
<use xlink:href="#stroke0_84_12" transform="matrix(-0.00156034 -0.00896746 -0.00896746 0.00156034 34.9161 8.2104)"/>
<use xlink:href="#stroke0_84_12" transform="matrix(0.00268429 -0.00825073 -0.00825073 -0.00268429 33.7486 7.39302)"/>
<use xlink:href="#stroke0_84_12" transform="matrix(0.00367663 -0.00310496 -0.00310496 -0.00367663 32.2894 5.90103)"/>
<defs>
<g id="stroke0_84_12" data-figma-scatter-ref="stroke0_84_12_ref" data-figma-scatter="f0.51_w0.06_aj180_sj0.65_r0_s0_sw2.09">
<path d="M215.823 333.963C215.823 333.23 216.123 332.93 216.49 333.296C216.856 333.663 216.856 334.263 216.49 334.63C216.123 334.996 215.823 334.696 215.823 333.963ZM143.424 3.97701C148.056 3.32404 151.523 8.80284 148.726 12.3588C146.775 14.8388 146.175 17.9633 147.648 17.9633C148.553 17.9667 158.823 30.3033 158.823 31.3862C158.823 32.4623 154.479 36.4974 152.507 37.2544C150.609 37.9824 151.073 39.9631 153.14 39.9633C153.801 39.9633 154.92 40.8881 155.626 42.02C156.91 44.0739 156.912 44.0744 158.617 42.0766C159.555 40.9766 161.223 39.938 162.323 39.77C163.423 39.601 164.653 39.0132 165.057 38.4633C165.472 37.8983 165.798 38.2253 165.807 39.2133C165.825 41.3531 166.254 41.3818 169.215 39.4419C170.838 38.3789 171.405 37.2303 171.099 35.6313C170.05 30.1434 175.963 30.1199 185.501 35.5737C190.79 38.5976 191.028 38.5792 193.164 34.9633C196.187 29.8454 203.13 33.2701 201.316 38.9838C200.801 40.6068 201.133 41.2309 202.733 41.6499C203.883 41.9499 204.823 42.5946 204.823 43.0805C204.824 43.5654 205.723 43.9633 206.823 43.9633C209.228 43.9633 209.333 43.3299 207.269 41.2661C205.332 39.3301 205.758 35.0191 208.025 33.5991C210.469 32.0694 211.11 33.2632 210.001 37.2797C209.157 40.3355 209.276 40.8478 210.928 41.2797C211.97 41.5527 212.823 42.4936 212.823 43.3696C212.824 45.4861 216.745 45.4516 218.302 43.3227C219.936 41.0879 223.264 42.9574 223.298 46.1294C223.32 48.1552 223.883 48.504 227.573 48.77C231.476 49.053 231.823 48.8831 231.823 46.6811C231.823 45.0832 232.672 43.8975 234.37 43.1245C240.164 40.4845 243.457 43.0685 242.282 49.3315C241.655 52.6722 241.655 52.6725 249.407 53.3745C262.73 54.5825 271.108 62.5852 260.323 63.8012C258.673 63.9882 256.79 64.5797 256.14 65.1167C255.368 65.7556 253.636 65.7276 251.14 65.0346C246.476 63.7398 245.823 63.7172 245.823 64.8549C245.823 65.7449 249.37 66.9616 253.515 67.4936C257.329 67.9826 258.042 68.9656 257.379 72.8286C255.795 82.0527 255.841 81.9633 252.685 81.9633C250.953 81.9633 249.964 81.5443 250.323 80.9633C250.663 80.4133 250.517 79.9633 249.999 79.9633C249.48 79.9633 248.821 79.0632 248.533 77.9633C248.217 76.7553 247.169 75.9633 245.885 75.9633C244.716 75.9632 243.46 75.1762 243.092 74.2133C242.404 72.4103 242.246 72.1833 238.753 67.9633C236.684 65.4633 236.684 65.4633 237.262 68.1733C237.705 70.252 237.359 71.1408 235.772 71.9897C232.719 73.6237 233.414 78.5898 236.633 78.1401C237.903 77.9621 239.585 78.3504 240.37 79.0024C241.211 79.7003 242.9 79.9101 244.485 79.5122C246.95 78.8932 247.055 78.9823 245.748 80.5922C244.844 81.7052 244.78 82.0721 245.573 81.5962C246.78 80.8713 247.26 82.2792 247.055 85.9321C247.01 86.7401 248.281 89.181 249.881 91.3569C252.292 94.6349 252.689 95.9524 252.194 99.0434C251.695 102.167 251.943 102.958 253.722 103.911C255.46 104.841 255.656 105.407 254.789 107.026C254.207 108.114 254.046 109.515 254.431 110.14C255.79 112.339 247.804 110.139 243.089 107.016C234.391 101.254 232.358 104.203 234.165 119.963C234.386 121.888 234.142 123.998 233.622 124.653C231.331 127.54 233.14 131.457 236.823 131.585C238.748 131.652 240.773 131.816 241.323 131.95C241.873 132.084 243.093 132.116 244.034 132.022C246.328 131.792 249.862 133.758 249.563 135.098C249.134 137.018 257.14 136.437 263.279 134.102C266.554 132.856 270.042 132.048 271.029 132.307C272.126 132.594 272.823 132.23 272.823 131.37C272.823 130.597 271.923 129.963 270.823 129.963C268.355 129.963 268.291 128.842 270.596 125.996C272.37 123.806 272.37 123.805 274.251 125.884C277.35 129.307 282.41 126.734 280.041 122.94C279.048 121.351 279.46 120.899 283.362 119.295C285.811 118.288 287.817 117.126 287.819 116.713C287.821 116.301 288.262 115.963 288.798 115.963C290.086 115.963 288.981 121.818 287.134 124.78C286.042 126.531 285.967 127.431 286.825 128.466C288.108 130.011 286.599 133.834 284.133 135.288C283.329 135.762 282.984 136.896 283.321 137.957C283.727 139.236 283.296 139.996 281.916 140.434C280.723 140.812 280.144 141.636 280.471 142.488C281.07 144.051 279.303 146.204 276.573 147.238C275.611 147.602 274.823 148.857 274.823 150.027C274.823 152.253 271.493 157.622 268.86 159.642C267.494 160.689 267.518 160.896 269.075 161.499C270.259 161.958 271.465 161.413 272.792 159.821C274.896 157.295 275.458 157.908 273.83 160.952C272.986 162.526 273.289 162.906 275.83 163.464C279.699 164.314 279.894 168.296 276.323 173.558C272.999 178.456 273.141 179.594 277.811 185.463C279.999 188.213 283.258 192.592 285.055 195.195C287.985 199.439 291.823 201.575 291.823 198.963C291.823 198.413 292.858 197.963 294.123 197.963C295.388 197.963 296.869 197.517 297.413 196.973C298.033 196.353 299.563 196.316 301.501 196.872C303.893 197.558 304.97 197.388 306.229 196.128C311.032 191.326 313.154 199.168 308.775 205.533C305.051 210.945 307.295 210.388 312.57 204.592C314.356 202.629 316.421 201.256 317.16 201.54C317.898 201.822 319.08 201.359 319.785 200.509C321.719 198.179 324.72 198.643 326.009 201.472C327.592 204.947 325.832 207.908 318.196 214.612C312.035 220.021 312.035 220.021 314.929 222.915C319.416 227.402 318.437 230.291 311.993 231.58C309.623 232.053 308.701 231.81 308.231 230.585C307.343 228.271 305.535 228.576 302.783 231.505C300.746 233.674 300.577 234.339 301.632 236.028C303.496 239.014 301.66 241.738 298.126 241.228C293.529 240.565 288.418 246.501 289.907 250.775C290.518 252.528 291.537 253.977 292.171 253.994C292.805 254.011 292.532 254.484 291.565 255.048C290.598 255.611 289.399 255.819 288.9 255.511C288.402 255.203 287.764 255.415 287.483 255.982C287.203 256.549 287.108 256.439 287.273 255.738C287.438 255.037 288.155 254.601 288.867 254.769C289.918 255.018 289.921 254.787 288.886 253.54C288.066 252.551 286.49 252.15 284.467 252.416C282.738 252.642 279.973 252.894 278.323 252.974C276.673 253.055 275.886 253.348 276.573 253.625C277.261 253.904 277.823 254.712 277.823 255.424C277.823 256.136 278.498 257.278 279.323 257.963C284.43 262.201 279.156 267.527 267.467 269.94C261.662 271.138 261.616 271.176 262.217 274.181C262.55 275.849 262.823 278.291 262.823 279.609C262.823 281.174 263.663 282.389 265.244 283.109C266.671 283.759 267.448 284.778 267.136 285.59C265.821 289.017 267.765 292.135 270.801 291.468C274.766 290.597 278.421 292.537 276.707 294.602C276.023 295.427 274.625 295.883 273.602 295.615C272.138 295.233 271.87 295.538 272.348 297.046C272.893 298.763 272.429 298.963 267.889 298.963C262.743 298.963 261.095 297.073 265.249 295.935C268.036 295.172 268.4 292.927 265.844 292.258C264.392 291.879 264.055 291.437 264.845 290.949C266.469 289.946 265.098 283.964 263.244 283.963C262.462 283.963 261.823 283.571 261.823 283.091C261.823 282.611 259.972 281.923 257.709 281.561C255.433 281.197 252.864 280.005 251.959 278.892C250.396 276.971 250.314 277.128 250.111 282.423C249.912 287.635 250.039 287.963 252.254 287.963C257.861 287.963 255.961 295.527 250.118 296.465C248.031 296.8 244.838 297.728 243.022 298.527C240.536 299.621 239.219 299.71 237.687 298.89C235.32 297.624 234.327 298.227 235.168 300.42C235.494 301.269 236.844 301.963 238.169 301.963C242.073 301.963 243.244 304.249 241.284 308.04C239.619 311.258 239.618 311.258 228.221 310.647C216.823 310.036 216.823 310.036 216.823 313.065C216.823 321.686 206.244 322.014 203.987 313.463C202.962 309.577 196.547 308.889 196.016 312.607C195.599 315.535 190.787 316.541 190.083 313.848C189.539 311.771 188.717 311.487 187.273 312.878C186.751 313.382 185.198 313.944 183.823 314.128C182.113 314.357 181.221 315.181 181 316.737C180.739 318.581 180.17 318.937 178 318.615C176.528 318.397 175.418 317.764 175.533 317.21C175.649 316.655 174.861 315.403 173.783 314.427C171.902 312.724 171.821 312.729 171.781 314.558C171.757 315.606 170.365 317.588 168.686 318.963C167.007 320.338 164.438 322.475 162.978 323.712C158.062 327.876 154.556 326.427 153.301 319.713C152.916 317.652 152.42 315.964 152.199 315.963C151.978 315.963 148.55 316.863 144.58 317.963C130.056 321.988 115.58 315.43 128.81 310.818C130.467 310.24 131.823 309.373 131.823 308.89C131.823 308.407 130.668 308.452 129.257 308.988C127.134 309.795 126.098 309.512 123.257 307.345C120.118 304.951 118.274 301.888 120.978 303.558C121.694 304.001 121.861 303.833 121.417 303.115C120.368 301.418 116.504 303.691 117.229 305.579C118.04 307.692 114.948 308.516 113.522 306.566C111.691 304.062 106.546 306.574 107.286 309.61C108.627 315.112 101.84 317.769 99.8455 312.524C98.8953 310.026 94.4089 310.708 90.3231 313.97C88.4581 315.459 83.5201 315.529 83.0311 314.074C82.7723 313.306 83.018 312.966 83.5799 313.313C84.1398 313.659 84.5764 313.384 84.5526 312.703C84.3916 308.249 84.9971 307.097 88.0731 306.006C91.7409 304.706 90.1749 302.466 84.8231 301.359C83.4482 301.075 81.5171 300.405 80.5321 299.87C79.5471 299.334 78.3755 299.121 77.9295 299.397C77.4824 299.673 76.2634 299.261 75.2196 298.481C73.4269 297.14 73.453 297.096 75.7069 297.665C77.4798 298.113 77.9663 297.907 77.6033 296.865C77.3352 296.094 76.3745 295.595 75.4686 295.757C74.5637 295.918 73.8231 295.644 73.8231 295.147C73.8225 293.779 67.1263 286.964 65.7821 286.963C64.5191 286.963 65.3358 292.016 66.7508 292.954C68.0246 293.798 67.6327 300.104 66.3377 299.607C65.6809 299.355 65.2149 300.076 65.2537 301.283C65.3377 303.874 62.3307 304.729 61.4256 302.372C61.0686 301.443 61.4731 299.62 62.3231 298.322C63.7468 296.15 63.7284 295.96 62.0955 295.928C61.1204 295.908 59.1988 295.27 57.826 294.51C56.13 293.571 54.9418 293.449 54.1238 294.128C52.5208 295.458 48.5416 294.139 49.1746 292.487C49.7193 291.067 47.2348 286.963 45.8309 286.963C44.5728 286.963 35.8231 278.847 35.8231 277.681C35.8231 277.1 37.4871 276.973 39.9481 277.367C43.78 277.98 44.0342 277.878 43.5272 275.938C43.0782 274.221 43.2342 274.059 44.4022 275.028C46.6741 276.914 46.0406 274.471 43.7127 272.369C42.5527 271.321 40.7375 268.625 39.6795 266.377C37.9885 262.785 29.7573 256.441 24.5213 254.696C21.1893 253.585 27.5839 242.826 31.0379 243.73C32.8048 244.192 33.0357 243.965 32.4178 242.374C31.1828 239.197 31.2554 238.448 32.7684 238.778C35.0593 239.276 38.8227 236.801 38.8231 234.794C38.8231 233.715 39.5439 232.963 40.5779 232.963C43.0149 232.963 45.0996 226.438 43.1737 224.839C42.4307 224.223 41.8231 222.9 41.8231 221.9C41.823 220.899 41.3729 219.803 40.8231 219.463C40.2731 219.123 39.8231 217.945 39.8231 216.845C39.8231 215.745 39.4205 215.093 38.9295 215.397C38.4384 215.7 37.0855 214.04 35.9237 211.706C34.7617 209.372 33.2645 206.563 32.5965 205.463C31.9285 204.363 30.3573 201.785 29.1033 199.734C26.2513 195.07 26.2154 191.993 28.9774 189.028C30.8989 186.965 30.957 186.618 29.5194 185.813C28.6324 185.316 28.1605 184.245 28.4735 183.431C28.8615 182.419 27.9015 181.476 25.4315 180.444C23.4467 179.615 21.786 178.38 21.741 177.7C21.499 174.063 20.5431 170.143 19.2762 167.585C18.4912 166.003 18.1172 163.64 18.4442 162.335C18.8492 160.724 18.6035 159.943 17.6805 159.9C16.9341 159.865 17.347 159.425 18.5975 158.923C21.2044 157.876 20.8038 153.423 17.911 151.294C13.1591 147.798 12.87 147.403 13.4549 145.213C13.7859 143.975 14.834 142.963 15.785 142.963C16.735 142.963 18.3281 142.063 19.3231 140.963C20.3181 139.863 21.5542 138.963 22.0682 138.963C22.5823 138.963 23.847 137.951 24.8787 136.713C26.4927 134.779 26.7609 134.71 26.7899 136.223C26.8079 137.191 25.9229 138.753 24.8231 139.695C22.2852 141.868 22.305 142.594 24.9237 143.279C26.0795 143.582 26.7278 144.308 26.3651 144.896C26.0023 145.483 25.92 145.963 26.1815 145.963C26.4445 145.963 27.4328 146.261 28.3778 146.623C29.5896 147.087 29.9501 146.866 29.6024 145.873C29.0314 144.244 32.5938 138.703 33.7518 139.419C34.1787 139.683 35.3646 139.287 36.3875 138.54C38.4045 137.065 37.003 133.964 34.3192 133.963C32.9872 133.963 30.2179 125.51 30.7147 122.963C30.8767 122.138 30.9536 119.741 30.8856 117.637C30.7766 114.238 31.1058 113.683 33.8338 112.653C35.9678 111.847 36.8578 110.879 36.7528 109.478C36.4928 106.022 36.7888 104.824 37.7537 105.42C38.2657 105.737 38.9407 105.581 39.2547 105.073C39.5679 104.566 40.6568 104.368 41.6746 104.635C44.2356 105.304 47.2646 102.201 45.7879 100.421C44.9809 99.4493 44.9929 98.5137 45.8309 96.9487C46.4608 95.7707 46.7305 94.1671 46.4305 93.3852C46.0505 92.3923 46.6314 91.9633 48.3543 91.9633C49.712 91.9632 50.8228 91.5132 50.8231 90.9633C50.8231 90.4135 50.3871 89.9636 49.8543 89.9633C49.3224 89.9633 49.1449 89.2882 49.4608 88.4633C49.7917 87.6015 49.481 86.9636 48.7303 86.9633C47.7133 86.9633 47.6899 86.6961 48.6229 85.7631C49.2829 85.1031 49.8231 83.8148 49.8231 82.9008C49.8233 81.6241 51.1422 81.0827 55.5067 80.5698C58.6325 80.2028 61.7825 79.411 62.5067 78.81C64.2735 77.3441 64.1799 74.9637 62.3543 74.9633C61.4603 74.9633 61.1108 75.5493 61.4608 76.4633C61.8237 77.4082 61.4499 77.9633 60.45 77.9633C58.464 77.9633 58.8759 72.1768 60.9559 70.8598C64.4336 68.656 58.1944 70.1802 53.6815 72.6362C50.1078 74.581 48.4698 75.0103 47.6688 74.2094C46.9258 73.4665 45.7561 73.4182 44.0643 74.061C39.8403 75.667 37.8231 74.3507 37.8231 69.9907C37.8233 65.514 41.1635 63.0775 53.0731 58.8667C60.4397 56.2628 60.5863 56.0654 58.1824 51.9956C56.1924 48.6276 56.994 44.361 59.7821 43.476C62.4579 42.6272 68.8174 43.9249 68.8377 45.3237C68.8797 48.4517 70.4558 49.1528 74.6307 47.9028C79.0287 46.5848 80.5395 44.5322 78.7215 42.3422C77.8406 41.2803 78.116 40.538 79.9549 39.018C81.9907 37.3362 82.4786 37.2654 83.4324 38.5122C85.3604 41.0312 100.442 37.019 99.3865 34.269C98.521 32.0121 103.808 29.185 104.979 31.2778C106.381 33.7828 109.101 33.326 112.231 30.059C115.014 27.1544 115.014 27.1541 112.856 24.9965C109.082 21.2226 112.1 14.3884 117.416 14.6713C123.005 14.9683 123.68 15.1663 123.238 16.3803C123.021 16.9763 123.233 18.0729 123.708 18.8178C124.754 20.4597 129.376 17.8723 130.306 15.1245C130.615 14.2105 133.671 11.332 137.096 8.72701C140.516 6.12608 143.361 3.99002 143.424 3.97701ZM208.763 322.963C209.345 322.963 209.823 323.413 209.823 323.963C209.823 324.513 209.625 324.963 209.382 324.963C209.139 324.963 208.663 324.513 208.323 323.963C207.983 323.413 208.182 322.964 208.763 322.963ZM116.823 315.345C116.823 314.52 117.273 314.123 117.823 314.463C118.373 314.803 118.823 315.757 118.823 316.582C118.823 317.406 118.373 317.803 117.823 317.463C117.273 317.123 116.823 316.17 116.823 315.345ZM202.323 313.963C202.598 313.963 202.823 314.188 202.823 314.463C202.823 314.738 202.598 314.963 202.323 314.963C202.048 314.963 201.823 314.738 201.823 314.463C201.823 314.188 202.048 313.963 202.323 313.963ZM74.7635 305.963C75.3455 305.963 75.8231 306.413 75.8231 306.963C75.823 307.513 75.6246 307.963 75.3817 307.963C75.1386 307.963 74.6629 307.513 74.3231 306.963C73.9831 306.413 74.1818 305.964 74.7635 305.963ZM71.8231 304.963C72.373 304.963 72.8231 305.413 72.8231 305.963C72.823 306.513 72.3729 306.963 71.8231 306.963C71.2731 306.963 70.8232 306.513 70.8231 305.963C70.8231 305.413 71.2731 304.963 71.8231 304.963ZM131.823 306.07C131.823 304.426 129.038 304.086 127.17 305.5C125.465 306.792 125.573 306.902 128.573 306.931C130.36 306.949 131.823 306.561 131.823 306.07ZM86.8231 303.963C87.5559 303.963 87.856 304.263 87.4901 304.63C87.1231 304.996 86.5231 304.996 86.1561 304.63C85.7901 304.263 86.0901 303.963 86.8231 303.963ZM77.2401 304.042C78.294 303.999 78.8836 304.235 78.5516 304.567C78.2196 304.899 77.3566 304.935 76.6356 304.646C75.838 304.327 76.0752 304.09 77.2401 304.042ZM78.8231 300.963C79.373 300.963 79.8231 301.413 79.8231 301.963C79.823 302.513 79.3729 302.963 78.8231 302.963C78.2731 302.963 77.8232 302.513 77.8231 301.963C77.8231 301.413 78.2731 300.963 78.8231 300.963ZM70.3231 299.963C71.148 299.963 71.8231 300.624 71.8231 301.432C71.8231 302.326 71.2371 302.675 70.3231 302.325C69.4981 302.008 68.8231 301.347 68.8231 300.856C68.8233 300.365 69.4982 299.963 70.3231 299.963ZM69.8231 291.963C70.3727 291.963 70.8226 292.161 70.8231 292.404C70.8231 292.647 70.3731 293.123 69.8231 293.463C69.2731 293.803 68.8231 293.604 68.8231 293.022C68.8232 292.44 69.2731 291.963 69.8231 291.963ZM270.323 285.963C271.148 285.963 271.823 286.133 271.823 286.341C271.823 286.548 271.148 287.279 270.323 287.963C269.094 288.983 268.823 288.914 268.823 287.585C268.823 286.693 269.498 285.963 270.323 285.963ZM275.323 284.963C275.598 284.963 275.823 285.188 275.823 285.463C275.823 285.738 275.598 285.963 275.323 285.963C275.048 285.963 274.823 285.738 274.823 285.463C274.823 285.188 275.048 284.963 275.323 284.963ZM273.515 281.322C274.055 279.913 274.222 279.924 275.064 281.429C276.122 283.319 275.489 284.493 273.932 283.531C273.371 283.182 273.183 282.189 273.515 281.322ZM269.981 280.963C269.981 279.588 270.208 279.026 270.485 279.713C270.763 280.401 270.763 281.526 270.485 282.213C270.208 282.901 269.981 282.338 269.981 280.963ZM272.323 279.963C272.598 279.963 272.823 280.188 272.823 280.463C272.823 280.738 272.598 280.963 272.323 280.963C272.048 280.963 271.823 280.738 271.823 280.463C271.823 280.188 272.048 279.963 272.323 279.963ZM266.479 278.508C266.109 277.545 266.407 277.251 267.374 277.622C269.054 278.267 269.168 278.632 267.928 279.398C267.435 279.703 266.783 279.302 266.479 278.508ZM273.323 277.963C273.598 277.963 273.823 278.188 273.823 278.463C273.823 278.738 273.598 278.963 273.323 278.963C273.048 278.963 272.823 278.738 272.823 278.463C272.823 278.188 273.048 277.963 273.323 277.963ZM312.823 274.963C312.823 274.23 313.123 273.93 313.49 274.296C313.856 274.663 313.856 275.263 313.49 275.63C313.123 275.996 312.823 275.696 312.823 274.963ZM306.823 264.522C306.823 262.765 307.423 262.507 308.28 263.894C308.597 264.406 308.398 265.108 307.839 265.454C307.28 265.798 306.823 265.379 306.823 264.522ZM39.241 257.57C36.868 256.659 36.5506 256.812 37.2156 258.545C37.5496 259.415 37.8231 260.315 37.8231 260.545C37.8235 260.775 38.4984 260.963 39.3231 260.963C41.3139 260.963 41.251 258.341 39.241 257.57ZM294.721 251.963C296.379 251.963 302.87 258.076 302.261 259.064C300.769 261.477 295.519 258.26 294.343 254.213C293.964 252.911 294.123 251.964 294.721 251.963ZM274.323 255.963C274.048 255.963 273.823 256.188 273.823 256.463C273.823 256.738 274.048 256.963 274.323 256.963C274.598 256.963 274.823 256.738 274.823 256.463C274.823 256.188 274.598 255.963 274.323 255.963ZM268.323 252.963C268.048 252.963 267.823 253.188 267.823 253.463C267.823 253.738 268.048 253.963 268.323 253.963C268.598 253.963 268.823 253.738 268.823 253.463C268.823 253.188 268.598 252.963 268.323 252.963ZM266.646 249.296C266.257 247.287 264.26 246.448 263.356 247.911C262.476 249.334 263.598 250.963 265.455 250.963C266.331 250.963 266.833 250.26 266.646 249.296ZM269.323 249.963C269.048 249.963 268.823 250.188 268.823 250.463C268.823 250.738 269.048 250.963 269.323 250.963C269.598 250.963 269.823 250.738 269.823 250.463C269.823 250.188 269.598 249.963 269.323 249.963ZM24.3231 232.963C24.598 232.963 24.8231 233.188 24.8231 233.463C24.823 233.738 24.5979 233.963 24.3231 233.963C24.0481 233.963 23.8232 233.738 23.8231 233.463C23.8231 233.188 24.0481 232.963 24.3231 232.963ZM26.3231 232.963C26.598 232.963 26.8231 233.188 26.8231 233.463C26.823 233.738 26.5979 233.963 26.3231 233.963C26.0481 233.963 25.8232 233.738 25.8231 233.463C25.8231 233.188 26.0481 232.963 26.3231 232.963ZM30.3231 182.963C30.0481 182.963 29.8231 183.188 29.8231 183.463C29.8232 183.738 30.0481 183.963 30.3231 183.963C30.5979 183.963 30.823 183.738 30.8231 183.463C30.8231 183.188 30.598 182.963 30.3231 182.963ZM25.8231 182.963C26.5559 182.963 26.856 183.263 26.4901 183.63C26.1231 183.996 25.5231 183.996 25.1561 183.63C24.7901 183.263 25.0901 182.963 25.8231 182.963ZM24.5418 168.045C24.7068 165.852 23.3077 164.369 22.4237 165.799C22.1289 166.277 22.4496 167.439 23.1375 168.378C24.2905 169.956 24.3998 169.93 24.5418 168.045ZM26.3231 165.963C26.0481 165.963 25.8231 166.188 25.8231 166.463C25.8232 166.738 26.0481 166.963 26.3231 166.963C26.5979 166.963 26.823 166.738 26.8231 166.463C26.8231 166.188 26.598 165.963 26.3231 165.963ZM278.023 154.164C281.374 150.813 285.386 154.145 284.39 159.453C283.619 163.564 281.534 164.032 278.766 160.713C276.583 158.097 276.33 155.857 278.023 154.164ZM0.823065 156.963C1.55594 156.963 1.85603 157.263 1.49006 157.63C1.12312 157.996 0.523086 157.996 0.156073 157.63C-0.209927 157.263 0.0900652 156.963 0.823065 156.963ZM286.917 147.963C287.415 147.963 287.823 148.863 287.823 149.963C287.823 151.063 287.65 151.962 287.44 151.963C287.229 151.963 286.821 151.063 286.533 149.963C286.246 148.863 286.418 147.963 286.917 147.963ZM285.323 145.963C285.598 145.963 285.823 146.188 285.823 146.463C285.823 146.738 285.598 146.963 285.323 146.963C285.048 146.963 284.823 146.738 284.823 146.463C284.823 146.188 285.048 145.963 285.323 145.963ZM293.205 142.963C293.48 142.963 293.983 143.413 294.323 143.963C294.663 144.513 294.716 144.963 294.441 144.963C294.166 144.963 293.663 144.513 293.323 143.963C292.983 143.413 292.93 142.963 293.205 142.963ZM18.6795 133.08C18.8755 133.016 18.7986 133.583 18.5076 134.341C18.2168 135.099 18.5072 136.25 19.1512 136.898C20.0502 137.802 19.7528 137.866 17.8738 137.174C14.8158 136.047 14.1344 134.282 16.5184 133.664C17.5105 133.407 18.4825 133.144 18.6795 133.08ZM27.4901 131.63C28.6061 130.513 29.4901 130.881 29.4901 132.463C29.49 133.288 28.8899 133.963 28.1561 133.963C26.7371 133.963 26.3861 132.734 27.4901 131.63ZM293.763 131.963C294.345 131.963 294.823 132.413 294.823 132.963C294.823 133.513 294.625 133.963 294.382 133.963C294.139 133.963 293.663 133.513 293.323 132.963C292.983 132.413 293.182 131.964 293.763 131.963ZM296.323 132.963C296.598 132.963 296.823 133.188 296.823 133.463C296.823 133.738 296.598 133.963 296.323 133.963C296.048 133.963 295.823 133.738 295.823 133.463C295.823 133.188 296.048 132.963 296.323 132.963ZM20.8231 128.963C21.373 128.963 21.8231 129.638 21.8231 130.463C21.823 131.288 21.3729 131.963 20.8231 131.963C20.2731 131.963 19.8231 131.288 19.8231 130.463C19.8231 129.638 20.2731 128.963 20.8231 128.963ZM302.823 129.091C306.081 127.786 307.823 127.729 307.823 128.928C307.823 130.677 303.932 132.124 302.06 131.07C300.503 130.194 300.582 129.989 302.823 129.091ZM14.3885 125.861C17.5155 124.636 18.4666 124.918 16.4256 126.463C15.3817 127.253 14.062 127.611 13.492 127.258C12.8941 126.889 13.2737 126.298 14.3885 125.861ZM290.882 124.963C291.4 124.963 291.823 125.413 291.823 125.963C291.823 126.513 291.12 126.963 290.263 126.963C289.407 126.963 288.983 126.513 289.323 125.963C289.663 125.413 290.364 124.963 290.882 124.963ZM253.323 104.963C253.048 104.963 252.823 105.188 252.823 105.463C252.823 105.738 253.048 105.963 253.323 105.963C253.598 105.963 253.823 105.738 253.823 105.463C253.823 105.188 253.598 104.963 253.323 104.963ZM38.3231 101.963C38.598 101.963 38.8231 102.188 38.8231 102.463C38.823 102.738 38.5979 102.963 38.3231 102.963C38.0481 102.963 37.8232 102.738 37.8231 102.463C37.8231 102.188 38.0481 101.963 38.3231 101.963ZM43.3231 100.963C43.598 100.963 43.8231 101.188 43.8231 101.463C43.823 101.738 43.5979 101.963 43.3231 101.963C43.0481 101.963 42.8232 101.738 42.8231 101.463C42.8231 101.188 43.0481 100.963 43.3231 100.963ZM32.0731 95.9458C33.86 94.8529 35.9221 94.1854 36.6551 94.4614C37.3872 94.7374 38.7372 94.9995 39.6551 95.0424C40.6539 95.0895 40.8314 95.3207 40.0975 95.6176C39.4238 95.8904 38.6452 95.9673 38.367 95.7885C38.089 95.6095 37.152 96.4753 36.286 97.7133C35.258 99.1803 33.6844 99.9633 31.7654 99.9633C27.9139 99.9632 28.0332 98.4167 32.0731 95.9458ZM260.323 98.9633C260.598 98.9634 260.823 99.1884 260.823 99.4633C260.823 99.7382 260.598 99.9632 260.323 99.9633C260.048 99.9633 259.823 99.7383 259.823 99.4633C259.823 99.1883 260.048 98.9633 260.323 98.9633ZM42.3231 97.9633C42.598 97.9634 42.8231 98.1884 42.8231 98.4633C42.823 98.7382 42.5979 98.9632 42.3231 98.9633C42.0481 98.9633 41.8232 98.7383 41.8231 98.4633C41.8231 98.1883 42.0481 97.9633 42.3231 97.9633ZM54.6434 89.7915C54.2964 87.4396 52.372 86.2652 51.411 87.8198C50.504 89.2878 51.8519 91.9633 53.4998 91.9633C54.4317 91.9633 54.8462 91.1762 54.6434 89.7915ZM239.323 74.9633C239.598 74.9634 239.823 75.1884 239.823 75.4633C239.823 75.7382 239.598 75.9632 239.323 75.9633C239.048 75.9633 238.823 75.7383 238.823 75.4633C238.823 75.1883 239.048 74.9633 239.323 74.9633ZM273.823 72.9594C273.823 72.4464 274.498 72.2376 275.323 72.4946C276.148 72.7526 277.573 73.2036 278.49 73.4965C279.664 73.8715 279.843 74.3424 279.097 75.0883C277.917 76.2677 273.824 74.6152 273.823 72.9594ZM69.8074 71.2133C69.8294 69.4163 68.1488 69.6726 67.4178 71.5766C67.0247 72.6002 66.0719 73.0001 64.8113 72.6704C63.7187 72.3845 62.8236 72.5091 62.8231 72.9477C62.8231 73.3867 64.0183 74.0465 65.4783 74.4135C68.145 75.0822 69.7744 73.878 69.8074 71.2133ZM244.382 68.9633C244.139 68.9636 243.663 69.4135 243.323 69.9633C242.983 70.5132 243.182 70.9631 243.763 70.9633C244.345 70.9633 244.823 70.5133 244.823 69.9633C244.823 69.4133 244.625 68.9633 244.382 68.9633ZM241.323 67.9633C241.048 67.9633 240.823 68.1883 240.823 68.4633C240.823 68.7383 241.048 68.9633 241.323 68.9633C241.598 68.9632 241.823 68.7382 241.823 68.4633C241.823 68.1884 241.598 67.9634 241.323 67.9633ZM144.24 46.0424C143.075 46.0904 142.838 46.327 143.636 46.646C144.357 46.935 145.22 46.8988 145.552 46.5669C145.884 46.2349 145.294 45.9995 144.24 46.0424ZM181.823 43.9633C181.09 43.9633 180.79 44.2633 181.156 44.6303C181.523 44.9962 182.123 44.9963 182.49 44.6303C182.856 44.2634 182.556 43.9634 181.823 43.9633ZM147.345 34.3335C146.209 33.8976 145.532 34.3585 145.147 35.8335C144.84 37.0054 143.967 37.9633 143.206 37.9633C142.446 37.9633 141.823 38.4133 141.823 38.9633C141.823 40.4821 144.417 40.1582 145.823 38.4633C146.508 37.6384 148.111 36.9635 149.386 36.9633C150.661 36.9633 151.983 36.5133 152.323 35.9633C152.663 35.4133 152.051 34.9633 150.964 34.9633C149.876 34.9633 148.247 34.6804 147.345 34.3335ZM138.947 36.6958C137.959 35.7159 137.845 35.8314 138.387 37.2563C138.763 38.2423 139.322 38.7967 139.63 38.4887C139.938 38.1817 139.631 37.3747 138.947 36.6958ZM160.323 29.9633C160.598 29.9634 160.823 30.1884 160.823 30.4633C160.823 30.7382 160.598 30.9632 160.323 30.9633C160.048 30.9633 159.823 30.7382 159.823 30.4633C159.823 30.1883 160.048 29.9633 160.323 29.9633ZM205.823 28.9633C206.556 28.9634 206.856 29.2634 206.49 29.6303C206.123 29.9963 205.523 29.9961 205.156 29.6303C204.79 29.2633 205.09 28.9633 205.823 28.9633ZM210.823 24.9633C211.373 24.9634 211.823 25.161 211.823 25.4038C211.823 25.6468 211.373 26.1233 210.823 26.4633C210.273 26.8033 209.823 26.6039 209.823 26.0219C209.823 25.44 210.273 24.9633 210.823 24.9633ZM176.323 24.9633C176.598 24.9634 176.823 25.1884 176.823 25.4633C176.823 25.7382 176.598 25.9632 176.323 25.9633C176.048 25.9633 175.823 25.7382 175.823 25.4633C175.823 25.1883 176.048 24.9633 176.323 24.9633ZM172.823 18.9633C173.556 18.9634 173.856 19.2634 173.49 19.6303C173.123 19.9963 172.523 19.9961 172.156 19.6303C171.79 19.2633 172.09 18.9633 172.823 18.9633ZM173.823 15.9633C173.823 15.2303 174.123 14.9303 174.49 15.2963C174.856 15.6634 174.856 16.2634 174.49 16.6303C174.123 16.9963 173.823 16.6962 173.823 15.9633ZM208.823 13.9633C209.556 13.9634 209.856 14.2634 209.49 14.6303C209.123 14.9963 208.523 14.9962 208.156 14.6303C207.79 14.2633 208.09 13.9633 208.823 13.9633ZM177.323 12.9633C177.598 12.9634 177.823 13.1884 177.823 13.4633C177.823 13.7382 177.598 13.9632 177.323 13.9633C177.048 13.9633 176.823 13.7382 176.823 13.4633C176.823 13.1883 177.048 12.9633 177.323 12.9633ZM166.323 10.9633C166.598 10.9634 166.823 11.1884 166.823 11.4633C166.823 11.7382 166.598 11.9632 166.323 11.9633C166.048 11.9633 165.823 11.7382 165.823 11.4633C165.823 11.1883 166.048 10.9633 166.323 10.9633ZM175.823 10.9633C175.823 10.2303 176.123 9.93035 176.49 10.2963C176.856 10.6634 176.856 11.2634 176.49 11.6303C176.123 11.9963 175.823 11.6962 175.823 10.9633ZM171.323 9.96334C171.598 9.96343 171.823 10.1884 171.823 10.4633C171.823 10.7382 171.598 10.9632 171.323 10.9633C171.048 10.9633 170.823 10.7382 170.823 10.4633C170.823 10.1883 171.048 9.96334 171.323 9.96334ZM132.382 6.96334C132.625 6.96334 132.823 7.41334 132.823 7.96334C132.823 8.51325 132.345 8.96334 131.763 8.96334C131.182 8.96314 130.983 8.51318 131.323 7.96334C131.663 7.41353 132.139 6.96364 132.382 6.96334ZM122.823 7.96334C123.556 7.96339 123.856 8.26336 123.49 8.63033C123.123 8.99625 122.523 8.99614 122.156 8.63033C121.79 8.26333 122.09 7.96334 122.823 7.96334ZM167.204 2.311C170.133 -0.207938 172.823 -0.770742 172.823 1.13424C172.823 2.86018 169.742 5.96305 168.028 5.96334C167.212 5.96334 166.002 6.70389 165.34 7.60885C164.278 9.06077 164.156 8.98412 164.305 6.95846C164.398 5.69446 165.703 3.603 167.204 2.311Z" fill="#FF5294"/>
</g>
<path id="stroke0_84_12_ref" d="M32.2974 4.85445L29.6091 2.25289C28.4708 1.15133 26.6302 1.15133 25.504 2.25289L1.96339 25.0224C0.825104 26.124 0.825104 27.9052 1.96339 28.9951L25.504 51.7763C26.6423 52.8779 28.4829 52.8779 29.6091 51.7763L32.2974 49.1748C33.4478 48.0615 33.4235 46.2451 32.2489 45.1552L17.6571 31.7021H52.4595C54.07 31.7021 55.3657 30.4482 55.3657 28.8896V25.1396C55.3657 23.581 54.07 22.3271 52.4595 22.3271H17.6571L32.2489 8.87399C33.4356 7.78414 33.4599 5.96774 32.2974 4.85445Z"/>
</defs>
</svg>
